<svg xmlns="http://www.w3.org/2000/svg" viewBox="0 0 960 480" width="100%" height="480px" style="background:#0f172a; font-family: Inter, sans-serif;">
  <defs>
    <marker id="arrow" viewBox="0 0 10 10" refX="8" refY="5" markerWidth="6" markerHeight="6" orient="auto-start-reverse">
      <path d="M 0 0 L 10 5 L 0 10 z" fill="#94a3b8"/>
    </marker>
    <filter id="glow" x="-20%" y="-20%" width="140%" height="140%">
      <feGaussianBlur stdDeviation="3" result="blur"/>
      <feComposite in="SourceGraphic" in2="blur" operator="over"/>
    </filter>
  </defs>
  <style>
    .prop-line { stroke: #64748b; stroke-width: 2.5; fill: none; marker-end: url(#arrow); }
    .prop-bypass { stroke: #f97316; stroke-width: 2.5; stroke-dasharray: 6,4; fill: none; marker-end: url(#arrow); }
    .prop-attn { stroke: #a855f7; stroke-width: 2.5; fill: none; marker-end: url(#arrow); }
    .node-title { fill: #f8fafc; font-size: 13px; font-weight: 600; text-anchor: middle; }
    .node-sub { fill: #94a3b8; font-size: 10px; text-anchor: middle; }
    .edge-label { fill: #cbd5e1; font-size: 10px; text-anchor: middle; }
  </style>
  <!-- Title Banner -->
  <text x="480.0" y="30" fill="#e2e8f0" font-size="16" font-weight="700" text-anchor="middle">Visual Machine Learning Feynman Diagram: transformer_attention_formula</text>
  <!-- Propagator Edges -->
  <path d="M 100.0 513.0 C 176.0 513.0, 176.0 422.0, 252.0 422.0" class="prop-line"/>
  <text x="176.0" y="459.5" class="edge-label">(4, 256, 768)</text>
  <path d="M 100.0 331.0 C 176.0 331.0, 176.0 422.0, 252.0 422.0" class="prop-line"/>
  <text x="176.0" y="368.5" class="edge-label">(768, 768)</text>
  <path d="M 100.0 513.0 C 176.0 513.0, 176.0 240.0, 252.0 240.0" class="prop-line"/>
  <text x="176.0" y="368.5" class="edge-label">(4, 256, 768)</text>
  <path d="M 100.0 149.0 C 176.0 149.0, 176.0 240.0, 252.0 240.0" class="prop-line"/>
  <text x="176.0" y="186.5" class="edge-label">(768, 768)</text>
  <path d="M 100.0 513.0 C 176.0 513.0, 176.0 58.0, 252.0 58.0" class="prop-line"/>
  <text x="176.0" y="277.5" class="edge-label">(4, 256, 768)</text>
  <path d="M 100.0 -32.99999999999994 C 176.0 -32.99999999999994, 176.0 58.0, 252.0 58.0" class="prop-line"/>
  <text x="176.0" y="4.500000000000028" class="edge-label">(768, 768)</text>
  <path d="M 252.0 422.0 C 328.0 422.0, 328.0 240.0, 404.0 240.0" class="prop-line"/>
  <text x="328.0" y="323.0" class="edge-label">(4, 256, 768)</text>
  <path d="M 252.0 240.0 L 404.0 240.0" class="prop-line"/>
  <text x="328.0" y="232.0" class="edge-label">(4, 256, 768)</text>
  <path d="M 252.0 58.0 C 328.0 58.0, 328.0 240.0, 404.0 240.0" class="prop-line"/>
  <text x="328.0" y="141.0" class="edge-label">(4, 256, 768)</text>
  <path d="M 100.0 513.0 C 140.0 140.0, 516.0 140.0, 556.0 240.0" class="prop-bypass"/>
  <text x="328.0" y="154.0" class="edge-label">(4, 256, 768)</text>
  <path d="M 404.0 240.0 L 556.0 240.0" class="prop-line"/>
  <text x="480.0" y="232.0" class="edge-label">(4, 256, 768)</text>
  <path d="M 556.0 240.0 L 708.0 240.0" class="prop-line"/>
  <text x="632.0" y="232.0" class="edge-label">(4, 256, 768)</text>
  <path d="M 708.0 240.0 L 860.0 240.0" class="prop-line"/>
  <text x="784.0" y="232.0" class="edge-label">(4, 256, 768)</text>
  <!-- Vertex Interaction Nodes -->
  <g transform="translate(100.0,513.0)">
    <rect x="-35" y="-18" width="70" height="36" rx="8" fill="#2563eb" filter="url(#glow)"/>
    <text y="4" class="node-title" font-size="11">x</text>
  </g>
  <g transform="translate(100.0,331.0)">
    <rect x="-35" y="-18" width="70" height="36" rx="8" fill="#2563eb" filter="url(#glow)"/>
    <text y="4" class="node-title" font-size="11">W_q</text>
  </g>
  <g transform="translate(100.0,149.0)">
    <rect x="-35" y="-18" width="70" height="36" rx="8" fill="#2563eb" filter="url(#glow)"/>
    <text y="4" class="node-title" font-size="11">W_k</text>
  </g>
  <g transform="translate(100.0,-32.99999999999994)">
    <rect x="-35" y="-18" width="70" height="36" rx="8" fill="#2563eb" filter="url(#glow)"/>
    <text y="4" class="node-title" font-size="11">W_v</text>
  </g>
  <g transform="translate(252.0,422.0)">
    <circle r="22" fill="#dc2626" filter="url(#glow)"/>
    <text y="-28" class="node-title">proj_Q</text>
    <text y="4" class="node-title" font-size="10">Contra</text>
  </g>
  <g transform="translate(252.0,240.0)">
    <circle r="22" fill="#dc2626" filter="url(#glow)"/>
    <text y="-28" class="node-title">proj_K</text>
    <text y="4" class="node-title" font-size="10">Contra</text>
  </g>
  <g transform="translate(252.0,58.0)">
    <circle r="22" fill="#dc2626" filter="url(#glow)"/>
    <text y="-28" class="node-title">proj_V</text>
    <text y="4" class="node-title" font-size="10">Contra</text>
  </g>
  <g transform="translate(404.0,240.0)">
    <circle r="22" fill="#9333ea" filter="url(#glow)"/>
    <text y="-28" class="node-title">sdpa_attention</text>
    <text y="4" class="node-title" font-size="10">Attent</text>
  </g>
  <g transform="translate(556.0,240.0)">
    <circle r="22" fill="#ea580c" filter="url(#glow)"/>
    <text y="-28" class="node-title">residual_add</text>
    <text y="4" class="node-title" font-size="10">Residu</text>
  </g>
  <g transform="translate(708.0,240.0)">
    <circle r="22" fill="#475569" filter="url(#glow)"/>
    <text y="-28" class="node-title">layer_norm</text>
    <text y="4" class="node-title" font-size="10">Norm</text>
  </g>
  <g transform="translate(860.0,240.0)">
    <rect x="-35" y="-18" width="70" height="36" rx="8" fill="#0f172a" filter="url(#glow)"/>
    <text y="4" class="node-title" font-size="11">out</text>
  </g>
</svg>