<svg xmlns="http://www.w3.org/2000/svg" viewBox="0 0 4420 1260" width="100%" height="1260px" style="background:#0f172a; font-family: Inter, sans-serif;">
  <defs>
    <marker id="arrow" viewBox="0 0 10 10" refX="8" refY="5" markerWidth="6" markerHeight="6" orient="auto-start-reverse">
      <path d="M 0 0 L 10 5 L 0 10 z" fill="#94a3b8"/>
    </marker>
    <filter id="glow" x="-20%" y="-20%" width="140%" height="140%">
      <feGaussianBlur stdDeviation="3" result="blur"/>
      <feComposite in="SourceGraphic" in2="blur" operator="over"/>
    </filter>
  </defs>
  <style>
    .prop-line { stroke: #64748b; stroke-width: 2.5; fill: none; marker-end: url(#arrow); }
    .prop-bypass { stroke: #f97316; stroke-width: 2.5; stroke-dasharray: 6,4; fill: none; marker-end: url(#arrow); }
    .prop-attn { stroke: #a855f7; stroke-width: 2.5; fill: none; marker-end: url(#arrow); }
    .node-title { fill: #f8fafc; font-size: 13px; font-weight: 600; text-anchor: middle; }
    .node-sub { fill: #94a3b8; font-size: 10px; text-anchor: middle; }
    .edge-label { fill: #cbd5e1; font-size: 10px; text-anchor: middle; }
  </style>
  <!-- Title Banner -->
  <text x="2210.0" y="30" fill="#e2e8f0" font-size="16" font-weight="700" text-anchor="middle">Visual Machine Learning Feynman Diagram: llama3_2layer_architecture</text>
  <!-- Propagator Edges -->
  <path d="M 100.0 1903.9999999999998 C 187.91666666666669 1903.9999999999998, 187.91666666666669 630.0, 275.83333333333337 630.0" class="prop-line"/>
  <text x="187.91666666666669" y="1259.0" class="edge-label">(2, 128, 4096)</text>
  <path d="M 275.83333333333337 630.0 C 363.75 630.0, 363.75 812.0, 451.6666666666667 812.0" class="prop-line"/>
  <text x="363.75" y="713.0" class="edge-label">(2, 128, 4096)</text>
  <path d="M 100.0 1721.9999999999998 C 275.83333333333337 1721.9999999999998, 275.83333333333337 812.0, 451.6666666666667 812.0" class="prop-line"/>
  <text x="275.83333333333337" y="1259.0" class="edge-label">(4096, 4096)</text>
  <path d="M 275.83333333333337 630.0 L 451.6666666666667 630.0" class="prop-line"/>
  <text x="363.75" y="622.0" class="edge-label">(2, 128, 4096)</text>
  <path d="M 100.0 1540.0 C 275.83333333333337 1540.0, 275.83333333333337 630.0, 451.6666666666667 630.0" class="prop-line"/>
  <text x="275.83333333333337" y="1077.0" class="edge-label">(4096, 4096)</text>
  <path d="M 275.83333333333337 630.0 C 363.75 630.0, 363.75 448.0, 451.6666666666667 448.0" class="prop-line"/>
  <text x="363.75" y="531.0" class="edge-label">(2, 128, 4096)</text>
  <path d="M 100.0 1358.0 C 275.83333333333337 1358.0, 275.83333333333337 448.0, 451.6666666666667 448.0" class="prop-line"/>
  <text x="275.83333333333337" y="895.0" class="edge-label">(4096, 4096)</text>
  <path d="M 451.6666666666667 812.0 C 539.5833333333334 812.0, 539.5833333333334 630.0, 627.5 630.0" class="prop-line"/>
  <text x="539.5833333333334" y="713.0" class="edge-label">(2, 128, 4096)</text>
  <path d="M 451.6666666666667 630.0 L 627.5 630.0" class="prop-line"/>
  <text x="539.5833333333334" y="622.0" class="edge-label">(2, 128, 4096)</text>
  <path d="M 451.6666666666667 448.0 C 539.5833333333334 448.0, 539.5833333333334 630.0, 627.5 630.0" class="prop-line"/>
  <text x="539.5833333333334" y="531.0" class="edge-label">(2, 128, 4096)</text>
  <path d="M 627.5 630.0 L 803.3333333333334 630.0" class="prop-line"/>
  <text x="715.4166666666667" y="622.0" class="edge-label">(2, 128, 4096)</text>
  <path d="M 100.0 1176.0 C 451.6666666666667 1176.0, 451.6666666666667 630.0, 803.3333333333334 630.0" class="prop-line"/>
  <text x="451.6666666666667" y="895.0" class="edge-label">(4096, 4096)</text>
  <path d="M 100.0 1903.9999999999998 C 140.0 530.0, 939.1666666666667 530.0, 979.1666666666667 630.0" class="prop-bypass"/>
  <text x="539.5833333333334" y="544.0" class="edge-label">(2, 128, 4096)</text>
  <path d="M 803.3333333333334 630.0 L 979.1666666666667 630.0" class="prop-line"/>
  <text x="891.25" y="622.0" class="edge-label">(2, 128, 4096)</text>
  <path d="M 979.1666666666667 630.0 L 1155.0 630.0" class="prop-attn"/>
  <text x="1067.0833333333335" y="622.0" class="edge-label">(2, 128, 4096)</text>
  <path d="M 1155.0 630.0 C 1242.9166666666667 630.0, 1242.9166666666667 721.0, 1330.8333333333335 721.0" class="prop-line"/>
  <text x="1242.9166666666667" y="667.5" class="edge-label">(2, 128, 4096)</text>
  <path d="M 100.0 994.0 C 715.4166666666667 994.0, 715.4166666666667 721.0, 1330.8333333333335 721.0" class="prop-line"/>
  <text x="715.4166666666667" y="849.5" class="edge-label">(4096, 11008)</text>
  <path d="M 1155.0 630.0 C 1242.9166666666667 630.0, 1242.9166666666667 539.0, 1330.8333333333335 539.0" class="prop-line"/>
  <text x="1242.9166666666667" y="576.5" class="edge-label">(2, 128, 4096)</text>
  <path d="M 100.0 812.0 C 715.4166666666667 812.0, 715.4166666666667 539.0, 1330.8333333333335 539.0" class="prop-line"/>
  <text x="715.4166666666667" y="667.5" class="edge-label">(4096, 11008)</text>
  <path d="M 1330.8333333333335 721.0 C 1418.75 721.0, 1418.75 630.0, 1506.6666666666667 630.0" class="prop-line"/>
  <text x="1418.75" y="667.5" class="edge-label">(2, 128, 11008)</text>
  <path d="M 1506.6666666666667 630.0 L 1682.5 630.0" class="prop-line"/>
  <text x="1594.5833333333335" y="622.0" class="edge-label">(2, 128, 11008)</text>
  <path d="M 1330.8333333333335 539.0 C 1506.6666666666667 539.0, 1506.6666666666667 630.0, 1682.5 630.0" class="prop-line"/>
  <text x="1506.6666666666667" y="576.5" class="edge-label">(2, 128, 11008)</text>
  <path d="M 1682.5 630.0 L 1858.3333333333335 630.0" class="prop-line"/>
  <text x="1770.4166666666667" y="622.0" class="edge-label">(2, 128, 11008)</text>
  <path d="M 100.0 630.0 L 1858.3333333333335 630.0" class="prop-line"/>
  <text x="979.1666666666667" y="622.0" class="edge-label">(11008, 4096)</text>
  <path d="M 979.1666666666667 630.0 C 1019.1666666666667 530.0, 1994.1666666666667 530.0, 2034.1666666666667 630.0" class="prop-bypass"/>
  <text x="1506.6666666666667" y="544.0" class="edge-label">(2, 128, 4096)</text>
  <path d="M 1858.3333333333335 630.0 L 2034.1666666666667 630.0" class="prop-line"/>
  <text x="1946.25" y="622.0" class="edge-label">(2, 128, 4096)</text>
  <path d="M 2034.1666666666667 630.0 L 2210.0 630.0" class="prop-line"/>
  <text x="2122.0833333333335" y="622.0" class="edge-label">(2, 128, 4096)</text>
  <path d="M 2210.0 630.0 C 2297.916666666667 630.0, 2297.916666666667 812.0, 2385.8333333333335 812.0" class="prop-line"/>
  <text x="2297.916666666667" y="713.0" class="edge-label">(2, 128, 4096)</text>
  <path d="M 100.0 448.0 C 1242.9166666666667 448.0, 1242.9166666666667 812.0, 2385.8333333333335 812.0" class="prop-line"/>
  <text x="1242.9166666666667" y="622.0" class="edge-label">(4096, 4096)</text>
  <path d="M 2210.0 630.0 L 2385.8333333333335 630.0" class="prop-line"/>
  <text x="2297.916666666667" y="622.0" class="edge-label">(2, 128, 4096)</text>
  <path d="M 100.0 266.0 C 1242.9166666666667 266.0, 1242.9166666666667 630.0, 2385.8333333333335 630.0" class="prop-line"/>
  <text x="1242.9166666666667" y="440.0" class="edge-label">(4096, 4096)</text>
  <path d="M 2210.0 630.0 C 2297.916666666667 630.0, 2297.916666666667 448.0, 2385.8333333333335 448.0" class="prop-line"/>
  <text x="2297.916666666667" y="531.0" class="edge-label">(2, 128, 4096)</text>
  <path d="M 100.0 84.00000000000011 C 1242.9166666666667 84.00000000000011, 1242.9166666666667 448.0, 2385.8333333333335 448.0" class="prop-line"/>
  <text x="1242.9166666666667" y="258.00000000000006" class="edge-label">(4096, 4096)</text>
  <path d="M 2385.8333333333335 812.0 C 2473.75 812.0, 2473.75 630.0, 2561.666666666667 630.0" class="prop-line"/>
  <text x="2473.75" y="713.0" class="edge-label">(2, 128, 4096)</text>
  <path d="M 2385.8333333333335 630.0 L 2561.666666666667 630.0" class="prop-line"/>
  <text x="2473.75" y="622.0" class="edge-label">(2, 128, 4096)</text>
  <path d="M 2385.8333333333335 448.0 C 2473.75 448.0, 2473.75 630.0, 2561.666666666667 630.0" class="prop-line"/>
  <text x="2473.75" y="531.0" class="edge-label">(2, 128, 4096)</text>
  <path d="M 2561.666666666667 630.0 L 2737.5 630.0" class="prop-line"/>
  <text x="2649.5833333333335" y="622.0" class="edge-label">(2, 128, 4096)</text>
  <path d="M 100.0 -98.0 C 1418.75 -98.0, 1418.75 630.0, 2737.5 630.0" class="prop-line"/>
  <text x="1418.75" y="258.0" class="edge-label">(4096, 4096)</text>
  <path d="M 2034.1666666666667 630.0 C 2074.166666666667 530.0, 2873.3333333333335 530.0, 2913.3333333333335 630.0" class="prop-bypass"/>
  <text x="2473.75" y="544.0" class="edge-label">(2, 128, 4096)</text>
  <path d="M 2737.5 630.0 L 2913.3333333333335 630.0" class="prop-line"/>
  <text x="2825.416666666667" y="622.0" class="edge-label">(2, 128, 4096)</text>
  <path d="M 2913.3333333333335 630.0 L 3089.166666666667 630.0" class="prop-attn"/>
  <text x="3001.25" y="622.0" class="edge-label">(2, 128, 4096)</text>
  <path d="M 3089.166666666667 630.0 C 3177.0833333333335 630.0, 3177.0833333333335 721.0, 3265.0 721.0" class="prop-line"/>
  <text x="3177.0833333333335" y="667.5" class="edge-label">(2, 128, 4096)</text>
  <path d="M 100.0 -280.0 C 1682.5 -280.0, 1682.5 721.0, 3265.0 721.0" class="prop-line"/>
  <text x="1682.5" y="212.5" class="edge-label">(4096, 11008)</text>
  <path d="M 3089.166666666667 630.0 C 3177.0833333333335 630.0, 3177.0833333333335 539.0, 3265.0 539.0" class="prop-line"/>
  <text x="3177.0833333333335" y="576.5" class="edge-label">(2, 128, 4096)</text>
  <path d="M 100.0 -461.9999999999998 C 1682.5 -461.9999999999998, 1682.5 539.0, 3265.0 539.0" class="prop-line"/>
  <text x="1682.5" y="30.500000000000114" class="edge-label">(4096, 11008)</text>
  <path d="M 3265.0 721.0 C 3352.916666666667 721.0, 3352.916666666667 630.0, 3440.8333333333335 630.0" class="prop-line"/>
  <text x="3352.916666666667" y="667.5" class="edge-label">(2, 128, 11008)</text>
  <path d="M 3440.8333333333335 630.0 L 3616.666666666667 630.0" class="prop-line"/>
  <text x="3528.75" y="622.0" class="edge-label">(2, 128, 11008)</text>
  <path d="M 3265.0 539.0 C 3440.8333333333335 539.0, 3440.8333333333335 630.0, 3616.666666666667 630.0" class="prop-line"/>
  <text x="3440.8333333333335" y="576.5" class="edge-label">(2, 128, 11008)</text>
  <path d="M 3616.666666666667 630.0 L 3792.5 630.0" class="prop-line"/>
  <text x="3704.5833333333335" y="622.0" class="edge-label">(2, 128, 11008)</text>
  <path d="M 100.0 -643.9999999999998 C 1946.25 -643.9999999999998, 1946.25 630.0, 3792.5 630.0" class="prop-line"/>
  <text x="1946.25" y="-14.999999999999886" class="edge-label">(11008, 4096)</text>
  <path d="M 2913.3333333333335 630.0 C 2953.3333333333335 530.0, 3928.3333333333335 530.0, 3968.3333333333335 630.0" class="prop-bypass"/>
  <text x="3440.8333333333335" y="544.0" class="edge-label">(2, 128, 4096)</text>
  <path d="M 3792.5 630.0 L 3968.3333333333335 630.0" class="prop-line"/>
  <text x="3880.416666666667" y="622.0" class="edge-label">(2, 128, 4096)</text>
  <path d="M 3968.3333333333335 630.0 L 4144.166666666667 630.0" class="prop-line"/>
  <text x="4056.25" y="622.0" class="edge-label">(2, 128, 4096)</text>
  <path d="M 4144.166666666667 630.0 L 4320.0 630.0" class="prop-line"/>
  <text x="4232.083333333334" y="622.0" class="edge-label">(2, 128, 4096)</text>
  <!-- Vertex Interaction Nodes -->
  <g transform="translate(100.0,1903.9999999999998)">
    <rect x="-35" y="-18" width="70" height="36" rx="8" fill="#2563eb" filter="url(#glow)"/>
    <text y="4" class="node-title" font-size="11">x_input</text>
  </g>
  <g transform="translate(100.0,1721.9999999999998)">
    <rect x="-35" y="-18" width="70" height="36" rx="8" fill="#2563eb" filter="url(#glow)"/>
    <text y="4" class="node-title" font-size="11">layer_0_W_q</text>
  </g>
  <g transform="translate(100.0,1540.0)">
    <rect x="-35" y="-18" width="70" height="36" rx="8" fill="#2563eb" filter="url(#glow)"/>
    <text y="4" class="node-title" font-size="11">layer_0_W_k</text>
  </g>
  <g transform="translate(100.0,1358.0)">
    <rect x="-35" y="-18" width="70" height="36" rx="8" fill="#2563eb" filter="url(#glow)"/>
    <text y="4" class="node-title" font-size="11">layer_0_W_v</text>
  </g>
  <g transform="translate(100.0,1176.0)">
    <rect x="-35" y="-18" width="70" height="36" rx="8" fill="#2563eb" filter="url(#glow)"/>
    <text y="4" class="node-title" font-size="11">layer_0_W_o</text>
  </g>
  <g transform="translate(100.0,994.0)">
    <rect x="-35" y="-18" width="70" height="36" rx="8" fill="#2563eb" filter="url(#glow)"/>
    <text y="4" class="node-title" font-size="11">layer_0_W_gate</text>
  </g>
  <g transform="translate(100.0,812.0)">
    <rect x="-35" y="-18" width="70" height="36" rx="8" fill="#2563eb" filter="url(#glow)"/>
    <text y="4" class="node-title" font-size="11">layer_0_W_up</text>
  </g>
  <g transform="translate(100.0,630.0)">
    <rect x="-35" y="-18" width="70" height="36" rx="8" fill="#2563eb" filter="url(#glow)"/>
    <text y="4" class="node-title" font-size="11">layer_0_W_down</text>
  </g>
  <g transform="translate(100.0,448.0)">
    <rect x="-35" y="-18" width="70" height="36" rx="8" fill="#2563eb" filter="url(#glow)"/>
    <text y="4" class="node-title" font-size="11">layer_1_W_q</text>
  </g>
  <g transform="translate(100.0,266.0)">
    <rect x="-35" y="-18" width="70" height="36" rx="8" fill="#2563eb" filter="url(#glow)"/>
    <text y="4" class="node-title" font-size="11">layer_1_W_k</text>
  </g>
  <g transform="translate(100.0,84.00000000000011)">
    <rect x="-35" y="-18" width="70" height="36" rx="8" fill="#2563eb" filter="url(#glow)"/>
    <text y="4" class="node-title" font-size="11">layer_1_W_v</text>
  </g>
  <g transform="translate(100.0,-98.0)">
    <rect x="-35" y="-18" width="70" height="36" rx="8" fill="#2563eb" filter="url(#glow)"/>
    <text y="4" class="node-title" font-size="11">layer_1_W_o</text>
  </g>
  <g transform="translate(100.0,-280.0)">
    <rect x="-35" y="-18" width="70" height="36" rx="8" fill="#2563eb" filter="url(#glow)"/>
    <text y="4" class="node-title" font-size="11">layer_1_W_gate</text>
  </g>
  <g transform="translate(100.0,-461.9999999999998)">
    <rect x="-35" y="-18" width="70" height="36" rx="8" fill="#2563eb" filter="url(#glow)"/>
    <text y="4" class="node-title" font-size="11">layer_1_W_up</text>
  </g>
  <g transform="translate(100.0,-643.9999999999998)">
    <rect x="-35" y="-18" width="70" height="36" rx="8" fill="#2563eb" filter="url(#glow)"/>
    <text y="4" class="node-title" font-size="11">layer_1_W_down</text>
  </g>
  <g transform="translate(275.83333333333337,630.0)">
    <circle r="22" fill="#475569" filter="url(#glow)"/>
    <text y="-28" class="node-title">layer_0_rms_norm1</text>
    <text y="4" class="node-title" font-size="10">Norm</text>
  </g>
  <g transform="translate(451.6666666666667,812.0)">
    <circle r="22" fill="#dc2626" filter="url(#glow)"/>
    <text y="-28" class="node-title">layer_0_proj_Q</text>
    <text y="4" class="node-title" font-size="10">Contra</text>
  </g>
  <g transform="translate(451.6666666666667,630.0)">
    <circle r="22" fill="#dc2626" filter="url(#glow)"/>
    <text y="-28" class="node-title">layer_0_proj_K</text>
    <text y="4" class="node-title" font-size="10">Contra</text>
  </g>
  <g transform="translate(451.6666666666667,448.0)">
    <circle r="22" fill="#dc2626" filter="url(#glow)"/>
    <text y="-28" class="node-title">layer_0_proj_V</text>
    <text y="4" class="node-title" font-size="10">Contra</text>
  </g>
  <g transform="translate(627.5,630.0)">
    <circle r="22" fill="#9333ea" filter="url(#glow)"/>
    <text y="-28" class="node-title">layer_0_attention</text>
    <text y="4" class="node-title" font-size="10">Attent</text>
  </g>
  <g transform="translate(803.3333333333334,630.0)">
    <circle r="22" fill="#dc2626" filter="url(#glow)"/>
    <text y="-28" class="node-title">layer_0_proj_O</text>
    <text y="4" class="node-title" font-size="10">Contra</text>
  </g>
  <g transform="translate(979.1666666666667,630.0)">
    <circle r="22" fill="#ea580c" filter="url(#glow)"/>
    <text y="-28" class="node-title">layer_0_res_attn</text>
    <text y="4" class="node-title" font-size="10">Residu</text>
  </g>
  <g transform="translate(1155.0,630.0)">
    <circle r="22" fill="#475569" filter="url(#glow)"/>
    <text y="-28" class="node-title">layer_0_rms_norm2</text>
    <text y="4" class="node-title" font-size="10">Norm</text>
  </g>
  <g transform="translate(1330.8333333333335,721.0)">
    <circle r="22" fill="#dc2626" filter="url(#glow)"/>
    <text y="-28" class="node-title">layer_0_proj_gate</text>
    <text y="4" class="node-title" font-size="10">Contra</text>
  </g>
  <g transform="translate(1330.8333333333335,539.0)">
    <circle r="22" fill="#dc2626" filter="url(#glow)"/>
    <text y="-28" class="node-title">layer_0_proj_up</text>
    <text y="4" class="node-title" font-size="10">Contra</text>
  </g>
  <g transform="translate(1506.6666666666667,630.0)">
    <circle r="22" fill="#16a34a" filter="url(#glow)"/>
    <text y="-28" class="node-title">layer_0_silu</text>
    <text y="4" class="node-title" font-size="10">Pointw</text>
  </g>
  <g transform="translate(1682.5,630.0)">
    <circle r="22" fill="#16a34a" filter="url(#glow)"/>
    <text y="-28" class="node-title">layer_0_swiglu_mul</text>
    <text y="4" class="node-title" font-size="10">Pointw</text>
  </g>
  <g transform="translate(1858.3333333333335,630.0)">
    <circle r="22" fill="#dc2626" filter="url(#glow)"/>
    <text y="-28" class="node-title">layer_0_proj_down</text>
    <text y="4" class="node-title" font-size="10">Contra</text>
  </g>
  <g transform="translate(2034.1666666666667,630.0)">
    <circle r="22" fill="#ea580c" filter="url(#glow)"/>
    <text y="-28" class="node-title">layer_0_res_ffn</text>
    <text y="4" class="node-title" font-size="10">Residu</text>
  </g>
  <g transform="translate(2210.0,630.0)">
    <circle r="22" fill="#475569" filter="url(#glow)"/>
    <text y="-28" class="node-title">layer_1_rms_norm1</text>
    <text y="4" class="node-title" font-size="10">Norm</text>
  </g>
  <g transform="translate(2385.8333333333335,812.0)">
    <circle r="22" fill="#dc2626" filter="url(#glow)"/>
    <text y="-28" class="node-title">layer_1_proj_Q</text>
    <text y="4" class="node-title" font-size="10">Contra</text>
  </g>
  <g transform="translate(2385.8333333333335,630.0)">
    <circle r="22" fill="#dc2626" filter="url(#glow)"/>
    <text y="-28" class="node-title">layer_1_proj_K</text>
    <text y="4" class="node-title" font-size="10">Contra</text>
  </g>
  <g transform="translate(2385.8333333333335,448.0)">
    <circle r="22" fill="#dc2626" filter="url(#glow)"/>
    <text y="-28" class="node-title">layer_1_proj_V</text>
    <text y="4" class="node-title" font-size="10">Contra</text>
  </g>
  <g transform="translate(2561.666666666667,630.0)">
    <circle r="22" fill="#9333ea" filter="url(#glow)"/>
    <text y="-28" class="node-title">layer_1_attention</text>
    <text y="4" class="node-title" font-size="10">Attent</text>
  </g>
  <g transform="translate(2737.5,630.0)">
    <circle r="22" fill="#dc2626" filter="url(#glow)"/>
    <text y="-28" class="node-title">layer_1_proj_O</text>
    <text y="4" class="node-title" font-size="10">Contra</text>
  </g>
  <g transform="translate(2913.3333333333335,630.0)">
    <circle r="22" fill="#ea580c" filter="url(#glow)"/>
    <text y="-28" class="node-title">layer_1_res_attn</text>
    <text y="4" class="node-title" font-size="10">Residu</text>
  </g>
  <g transform="translate(3089.166666666667,630.0)">
    <circle r="22" fill="#475569" filter="url(#glow)"/>
    <text y="-28" class="node-title">layer_1_rms_norm2</text>
    <text y="4" class="node-title" font-size="10">Norm</text>
  </g>
  <g transform="translate(3265.0,721.0)">
    <circle r="22" fill="#dc2626" filter="url(#glow)"/>
    <text y="-28" class="node-title">layer_1_proj_gate</text>
    <text y="4" class="node-title" font-size="10">Contra</text>
  </g>
  <g transform="translate(3265.0,539.0)">
    <circle r="22" fill="#dc2626" filter="url(#glow)"/>
    <text y="-28" class="node-title">layer_1_proj_up</text>
    <text y="4" class="node-title" font-size="10">Contra</text>
  </g>
  <g transform="translate(3440.8333333333335,630.0)">
    <circle r="22" fill="#16a34a" filter="url(#glow)"/>
    <text y="-28" class="node-title">layer_1_silu</text>
    <text y="4" class="node-title" font-size="10">Pointw</text>
  </g>
  <g transform="translate(3616.666666666667,630.0)">
    <circle r="22" fill="#16a34a" filter="url(#glow)"/>
    <text y="-28" class="node-title">layer_1_swiglu_mul</text>
    <text y="4" class="node-title" font-size="10">Pointw</text>
  </g>
  <g transform="translate(3792.5,630.0)">
    <circle r="22" fill="#dc2626" filter="url(#glow)"/>
    <text y="-28" class="node-title">layer_1_proj_down</text>
    <text y="4" class="node-title" font-size="10">Contra</text>
  </g>
  <g transform="translate(3968.3333333333335,630.0)">
    <circle r="22" fill="#ea580c" filter="url(#glow)"/>
    <text y="-28" class="node-title">layer_1_res_ffn</text>
    <text y="4" class="node-title" font-size="10">Residu</text>
  </g>
  <g transform="translate(4144.166666666667,630.0)">
    <circle r="22" fill="#475569" filter="url(#glow)"/>
    <text y="-28" class="node-title">final_rms_norm</text>
    <text y="4" class="node-title" font-size="10">Norm</text>
  </g>
  <g transform="translate(4320.0,630.0)">
    <rect x="-35" y="-18" width="70" height="36" rx="8" fill="#0f172a" filter="url(#glow)"/>
    <text y="4" class="node-title" font-size="11">logits_out</text>
  </g>
</svg>